<svg width="151" height="24" viewBox="0 0 151 24" fill="none" xmlns="http://www.w3.org/2000/svg">
<g clip-path="url(#clip0_240_189)">
<path fill-rule="evenodd" clip-rule="evenodd" d="M63.5278 0L77.116 0.607306L82.618 12.8297L74.856 24L61.1939 23.1252L55.5928 9.88237L63.5278 0ZM73.49 7.04523L63.6419 11.3475L72.061 17.8565L73.49 7.04523ZM72.35 4.88942L64.4796 1.50108L62.8263 8.62522L72.35 4.88942ZM70.3549 19.4943L61.8016 13.3873L62.0085 21.6626L70.3549 19.4943ZM81.252 12.8027L75.423 6.88869L73.884 18.261L81.252 12.8027ZM72.36 20.8245L65.1467 22.7097L73.63 23.2528L72.36 20.8245ZM80.112 15.4858L73.798 20.1893L75.053 22.6411L80.112 15.4858ZM77.126 2.315L75.899 4.83252L80.464 9.47253L77.126 2.315ZM75.598 1.11028L67.5811 0.784918L74.194 3.67694L75.598 1.11028ZM62.3572 2.27448L56.7422 9.36387L60.4963 10.159L62.3572 2.27448ZM60.2699 11.5497L56.4977 10.7511L60.4337 20.0227L60.2699 11.5497Z" fill="white"/>
<path fill-rule="evenodd" clip-rule="evenodd" d="M91.9749 11.1542H91.5189V7.09533H90.2969V16.6203H91.5189V12.1593H91.9389L95.7879 16.8579L96.7179 16.0718L93.0149 11.5927L96.1709 7.58915L95.2399 6.85791L91.9749 11.1542ZM102.611 7.09525H101.388V16.6203H107.589V15.5232H102.611V7.09525ZM112.094 7.09525H118.022V8.19215H113.316V11.0444H117.201V12.1412H113.316V15.5233H118.022V16.6204H112.094V7.09525ZM126.121 7.09525H122.892V16.6201H124.115V12.543H125.884L128.309 16.8577L129.367 16.2178L127.033 12.3604C128.181 12.0129 128.965 10.8612 128.965 9.69127C128.965 7.84484 127.707 7.09525 126.121 7.09525ZM127.688 9.69127C127.688 10.7701 126.904 11.4464 125.72 11.4464H124.115V8.19215H126.083C127.178 8.19215 127.688 8.83209 127.688 9.69127ZM139.966 11.8664C139.966 12.6343 139.911 16.7843 136.591 16.7843C135.059 16.7843 133.217 15.6875 133.217 11.8664C133.217 8.06373 135.023 6.93034 136.591 6.93034C138.105 6.93034 139.966 8.02726 139.966 11.8664ZM134.494 11.8664C134.494 13.2558 134.749 15.6325 136.591 15.6325C138.434 15.6325 138.689 13.2558 138.689 11.8664C138.689 10.4588 138.434 8.0821 136.591 8.0821C134.749 8.0821 134.494 10.4588 134.494 11.8664ZM147.627 15.6325C146.35 15.6325 145.784 14.7735 145.547 13.6033L144.453 13.9505C144.745 15.6506 145.857 16.7842 147.627 16.7842C149.378 16.7842 150.637 15.7603 150.637 13.9505C150.637 12.9634 150.18 12.1955 149.323 11.7201L147.298 10.8243C146.569 10.4954 146.021 10.2394 146.021 9.34345C146.021 8.48441 146.788 8.0821 147.572 8.0821C148.612 8.0821 149.104 8.74027 149.323 9.67253L150.491 9.32521C150.108 7.84448 149.177 6.93034 147.59 6.93034C146.094 6.93034 144.799 7.82624 144.799 9.43491C144.799 11.0689 145.892 11.5168 147.136 12.0268C147.256 12.076 147.377 12.1258 147.499 12.1773C147.575 12.2087 147.652 12.2395 147.728 12.2702C148.584 12.6149 149.414 12.9494 149.414 14.0237C149.414 15.0842 148.63 15.6325 147.627 15.6325Z" fill="white"/>
</g>
<path d="M1.41504 6.64258H4.15625C5.39128 6.64258 6.29818 6.85221 6.87695 7.27148C7.45573 7.69076 7.74512 8.32422 7.74512 9.17188C7.74512 9.75065 7.56738 10.2337 7.21191 10.6211C6.861 11.0039 6.34603 11.25 5.66699 11.3594V11.4004C6.46452 11.5189 7.05013 11.7718 7.42383 12.1592C7.80208 12.542 7.99121 13.0775 7.99121 13.7656C7.99121 14.6862 7.68587 15.3949 7.0752 15.8916C6.46452 16.3883 5.59863 16.6367 4.47754 16.6367H1.41504V6.64258ZM2.1123 11.0928H4.31348C5.25228 11.0928 5.93359 10.9378 6.35742 10.6279C6.78581 10.3135 7 9.82357 7 9.1582C7 8.49284 6.75846 8.00977 6.27539 7.70898C5.79688 7.4082 5.08138 7.25781 4.12891 7.25781H2.1123V11.0928ZM2.1123 11.708V16.0215H4.46387C6.31413 16.0215 7.23926 15.2695 7.23926 13.7656C7.23926 12.3939 6.264 11.708 4.31348 11.708H2.1123Z" fill="white"/>
<path d="M10.6094 9.20605V14.0186C10.6094 14.766 10.7666 15.3105 11.0811 15.6523C11.3955 15.9896 11.8831 16.1582 12.5439 16.1582C13.4281 16.1582 14.0775 15.9349 14.4922 15.4883C14.9115 15.0417 15.1211 14.3148 15.1211 13.3076V9.20605H15.791V16.6367H15.2168L15.0938 15.6113H15.0527C14.5697 16.3861 13.7106 16.7734 12.4756 16.7734C10.7848 16.7734 9.93945 15.8688 9.93945 14.0596V9.20605H10.6094Z" fill="white"/>
<path d="M18.9561 16.6367H18.2793V9.20605H18.9561V16.6367ZM18.1836 7.1416C18.1836 6.7041 18.3271 6.48535 18.6143 6.48535C18.7555 6.48535 18.8649 6.54232 18.9424 6.65625C19.0244 6.77018 19.0654 6.93197 19.0654 7.1416C19.0654 7.34668 19.0244 7.50846 18.9424 7.62695C18.8649 7.74544 18.7555 7.80469 18.6143 7.80469C18.3271 7.80469 18.1836 7.58366 18.1836 7.1416Z" fill="white"/>
<path d="M22.1279 16.6367H21.4512V6H22.1279V16.6367Z" fill="white"/>
<path d="M26.585 16.1719C27.0133 16.1719 27.387 16.1354 27.7061 16.0625V16.6094C27.3779 16.7188 26.9997 16.7734 26.5713 16.7734C25.915 16.7734 25.4297 16.598 25.1152 16.2471C24.8053 15.8962 24.6504 15.3447 24.6504 14.5928V9.79395H23.5498V9.39746L24.6504 9.08984L24.9922 7.4082H25.3408V9.20605H27.5215V9.79395H25.3408V14.4971C25.3408 15.0667 25.4411 15.4883 25.6416 15.7617C25.8421 16.0352 26.1566 16.1719 26.585 16.1719Z" fill="white"/>
<path d="M36.0869 9.0625C37.126 9.0625 37.9076 9.39062 38.4316 10.0469C38.9603 10.6986 39.2246 11.6533 39.2246 12.9111C39.2246 14.1462 38.9466 15.0986 38.3906 15.7686C37.8392 16.4385 37.0622 16.7734 36.0596 16.7734C35.5309 16.7734 35.0547 16.6641 34.6309 16.4453C34.207 16.2266 33.8721 15.9167 33.626 15.5156H33.5645L33.373 16.6367H32.9492V6H33.626V8.67285C33.626 9.07389 33.6169 9.44303 33.5986 9.78027L33.5781 10.3613H33.626C33.9085 9.91471 34.248 9.58659 34.6445 9.37695C35.0456 9.16732 35.5264 9.0625 36.0869 9.0625ZM36.0732 9.67773C35.1982 9.67773 34.5716 9.92839 34.1934 10.4297C33.8151 10.931 33.626 11.7581 33.626 12.9111V13.0273C33.626 14.1484 33.8219 14.9528 34.2139 15.4404C34.6104 15.9281 35.2256 16.1719 36.0596 16.1719C36.8708 16.1719 37.4814 15.8893 37.8916 15.3242C38.3018 14.7546 38.5068 13.9456 38.5068 12.8975C38.5068 10.751 37.6956 9.67773 36.0732 9.67773Z" fill="white"/>
<path d="M40.0449 9.20605H40.7422L42.3145 13.376C42.793 14.6566 43.096 15.5202 43.2236 15.9668H43.2646C43.4561 15.3789 43.7682 14.5016 44.2012 13.335L45.7734 9.20605H46.4707L43.1416 17.8398C42.8727 18.5417 42.6471 19.0156 42.4648 19.2617C42.2826 19.5078 42.0684 19.6924 41.8223 19.8154C41.5807 19.9385 41.2868 20 40.9404 20C40.6807 20 40.3913 19.9521 40.0723 19.8564V19.2686C40.3366 19.3415 40.6214 19.3779 40.9268 19.3779C41.1592 19.3779 41.3643 19.3232 41.542 19.2139C41.7197 19.1045 41.8792 18.9336 42.0205 18.7012C42.1663 18.4733 42.3327 18.1087 42.5195 17.6074C42.7109 17.1107 42.834 16.7871 42.8887 16.6367L40.0449 9.20605Z" fill="white"/>
<defs>
<clipPath id="clip0_240_189">
<rect width="96" height="24" fill="white" transform="translate(55)"/>
</clipPath>
</defs>
</svg>