<svg width="16" height="16" viewBox="0 0 16 16" fill="none" xmlns="http://www.w3.org/2000/svg">
<g clip-path="url(#clip0_15835_97899)">
<mask id="mask0_15835_97899" style="mask-type:luminance" maskUnits="userSpaceOnUse" x="1" y="0" width="15" height="16">
<path d="M15.1844 0H1V16H15.1844V0Z" fill="white"/>
</mask>
<g mask="url(#mask0_15835_97899)">
<path d="M1.53857 4.86368V11.1363C1.53857 11.5368 1.75265 11.9071 2.09938 12.1067L7.5328 15.2437C7.87952 15.4433 8.30637 15.4433 8.65311 15.2437L14.0865 12.1067C14.4332 11.9071 14.6473 11.5368 14.6473 11.1363V4.86368C14.6473 4.46319 14.4332 4.0929 14.0865 3.89331L8.65311 0.756336C8.30637 0.556746 7.87952 0.556746 7.5328 0.756336L2.09807 3.89331C1.75134 4.0929 1.53857 4.46319 1.53857 4.86368Z" fill="#213147"/>
<path d="M9.27844 9.21657L8.50355 11.3411C8.48254 11.4003 8.48254 11.4646 8.50355 11.5236L9.83662 15.1793L11.3785 14.289L9.52797 9.21657C9.48595 9.0997 9.32046 9.0997 9.27844 9.21657Z" fill="#69C3FC"/>
<path d="M10.8317 5.64366C10.7897 5.5268 10.6242 5.5268 10.5822 5.64366L9.80727 7.76824C9.78625 7.82733 9.78625 7.89167 9.80727 7.95077L11.9914 13.9358L13.5333 13.0456L10.8317 5.64366Z" fill="#69C3FC"/>
<path d="M8.0922 0.991383C8.13028 0.991383 8.16837 1.00189 8.20252 1.02027L14.0824 4.4146C14.1508 4.454 14.1929 4.52753 14.1929 4.605V11.3923C14.1929 11.4712 14.1508 11.5434 14.0824 11.5828L8.20252 14.9771C8.16969 14.9968 8.13028 15.006 8.0922 15.006C8.05412 15.006 8.01602 14.9955 7.98188 14.9771L2.10192 11.5854C2.03362 11.546 1.99159 11.4725 1.99159 11.395V4.60632C1.99159 4.52753 2.03362 4.45532 2.10192 4.41592L7.98188 1.02158C8.01602 1.00189 8.05412 0.991383 8.0922 0.991383ZM8.0922 0C7.88337 0 7.67324 0.0538367 7.48542 0.162823L1.60678 3.55585C1.23115 3.77251 1 4.173 1 4.60632V11.3937C1 11.827 1.23115 12.2275 1.60678 12.4441L7.48674 15.8385C7.67454 15.9462 7.88337 16.0014 8.09351 16.0014C8.30233 16.0014 8.51248 15.9475 8.70029 15.8385L14.5803 12.4441C14.9559 12.2275 15.187 11.827 15.187 11.3937V4.60632C15.187 4.173 14.9559 3.77251 14.5803 3.55585L8.69897 0.162823C8.51116 0.0538367 8.30103 0 8.0922 0Z" fill="#9DCCED"/>
<path d="M4.20312 13.9437L4.74423 12.4625L5.83301 13.3673L4.81515 14.297L4.20312 13.9437Z" fill="#213147"/>
<path d="M7.59678 4.12048H6.1061C5.99447 4.12048 5.89465 4.19008 5.85656 4.29512L2.66113 13.0534L4.20303 13.9437L7.72155 4.29906C7.75439 4.2124 7.69003 4.12048 7.59678 4.12048Z" fill="white"/>
<path d="M10.2056 4.12048H8.71497C8.60333 4.12048 8.50352 4.19008 8.46543 4.29512L4.81689 14.2956L6.35878 15.1859L10.3304 4.29906C10.3619 4.2124 10.2976 4.12048 10.2056 4.12048Z" fill="white"/>
</g>
</g>
<defs>
<clipPath id="clip0_15835_97899">
<rect width="14.1844" height="16" fill="white" transform="translate(1)"/>
</clipPath>
</defs>
</svg>
