<svg width="16" height="16" viewBox="0 0 16 16" fill="none" xmlns="http://www.w3.org/2000/svg">
<g clip-path="url(#clip0_849_2052)">
<path d="M4.7028 9.11027C5.16262 9.11027 5.61121 8.957 5.97383 8.67663L3.05794 5.76074C2.35514 6.66915 2.52336 7.97756 3.43178 8.68037C3.79813 8.957 4.24299 9.11027 4.7028 9.11027Z" fill="#00A6C4"/>
<path d="M13.3757 7.02805C13.3757 6.56823 13.2224 6.11964 12.9421 5.75702L10.0262 8.67291C10.9346 9.37571 12.2393 9.20749 12.9421 8.29908C13.2224 7.93646 13.3757 7.48786 13.3757 7.02805Z" fill="#00A6C4"/>
<path d="M14.8449 3.85419L13.5551 5.14391C14.5944 6.38877 14.4299 8.24297 13.185 9.28222C12.0935 10.1944 10.5084 10.1944 9.41682 9.28222L8 10.699L6.58692 9.28596C5.34206 10.3252 3.48785 10.1607 2.4486 8.91587C1.53645 7.82428 1.53645 6.23923 2.4486 5.14764L1.78692 4.48596L1.15888 3.85419C0.4 5.10279 0 6.5383 0 7.99998C0 12.4187 3.58131 16 8 16C12.4187 16 16 12.4187 16 7.99998C16.0037 6.5383 15.6 5.10279 14.8449 3.85419Z" fill="#00A6C4"/>
<path d="M13.7869 2.47852C10.7402 -0.717742 5.6785 -0.837368 2.48224 2.20936C2.38878 2.29908 2.29907 2.3888 2.21308 2.47852C2.01495 2.68787 1.82804 2.90469 1.65234 3.13273L8 9.48413L14.3477 3.13273C14.1757 2.90469 13.985 2.68787 13.7869 2.47852ZM8 1.04674C9.86916 1.04674 11.6112 1.76824 12.9196 3.08413L8 8.00375L3.08037 3.08413C4.38878 1.76824 6.13084 1.04674 8 1.04674Z" fill="#00A6C4"/>
</g>
<defs>
<clipPath id="clip0_849_2052">
<rect width="16" height="16" fill="white"/>
</clipPath>
</defs>
</svg>
