<svg width="16" height="16" viewBox="0 0 16 16" fill="none" xmlns="http://www.w3.org/2000/svg">
<path d="M14.7759 2.06066L13.1289 0.439344C12.8431 0.158039 12.4555 2.08024e-06 12.0514 0L6.5873 0C5.74571 0 5.06349 0.671562 5.06349 1.5V3H2.52381C1.68222 3 1 3.67156 1 4.5V14.5C1 15.3284 1.68222 16 2.52381 16H9.63492C10.4765 16 11.1587 15.3284 11.1587 14.5V13H13.6984C14.54 13 15.2222 12.3284 15.2222 11.5V3.12131C15.2222 2.72349 15.0617 2.34196 14.7759 2.06066ZM9.44444 14.5H2.71429C2.66377 14.5 2.61532 14.4802 2.5796 14.4451C2.54388 14.4099 2.52381 14.3622 2.52381 14.3125V4.6875C2.52381 4.63777 2.54388 4.59008 2.5796 4.55492C2.61532 4.51975 2.66377 4.5 2.71429 4.5H5.06349V11.5C5.06349 12.3284 5.74571 13 6.5873 13H9.63492V14.3125C9.63492 14.3622 9.61485 14.4099 9.57913 14.4451C9.54341 14.4802 9.49496 14.5 9.44444 14.5ZM13.5079 11.5H6.77778C6.72726 11.5 6.67881 11.4802 6.64309 11.4451C6.60737 11.4099 6.5873 11.3622 6.5873 11.3125V1.6875C6.5873 1.63777 6.60737 1.59008 6.64309 1.55492C6.67881 1.51975 6.72726 1.5 6.77778 1.5H10.1429V4.25C10.1429 4.66422 10.484 5 10.9048 5H13.6984V11.3125C13.6984 11.3622 13.6783 11.4099 13.6426 11.4451C13.6069 11.4802 13.5585 11.5 13.5079 11.5ZM13.6984 3.5H11.6667V1.5H11.9724C12.023 1.5 12.0714 1.51975 12.1071 1.55491L13.6426 3.06641C13.6603 3.08382 13.6744 3.10449 13.6839 3.12724C13.6935 3.14999 13.6984 3.17438 13.6984 3.199V3.5Z" fill="#69C3FC"/>
</svg>
