<svg width="16" height="17" viewBox="0 0 16 17" fill="none" xmlns="http://www.w3.org/2000/svg">
<g clip-path="url(#clip0_502_2854)">
<path d="M11.2308 8.25V9.125C11.2308 9.33125 11.0577 9.5 10.8462 9.5H5.46154C5.25 9.5 5.07692 9.33125 5.07692 9.125V8.25C5.07692 8.04375 5.25 7.875 5.46154 7.875H10.8462C11.0577 7.875 11.2308 8.04375 11.2308 8.25ZM10.8462 10.5H5.46154C5.25 10.5 5.07692 10.6687 5.07692 10.875V11.75C5.07692 11.9563 5.25 12.125 5.46154 12.125H10.8462C11.0577 12.125 11.2308 11.9563 11.2308 11.75V10.875C11.2308 10.6687 11.0577 10.5 10.8462 10.5ZM14.3077 4.62187V15C14.3077 15.8281 13.6186 16.5 12.7692 16.5H3.53846C2.6891 16.5 2 15.8281 2 15V2C2 1.17188 2.6891 0.5 3.53846 0.5H10.0801C10.4872 0.5 10.8782 0.659375 11.1667 0.940625L13.8558 3.5625C14.1442 3.84063 14.3077 4.225 14.3077 4.62187ZM10.2051 2.12188V4.5H12.6442L10.2051 2.12188ZM12.7692 15V6H9.4359C9.00962 6 8.66667 5.66563 8.66667 5.25V2H3.53846V15H12.7692Z" fill="#69C3FC"/>
</g>
<defs>
<clipPath id="clip0_502_2854">
<rect width="16" height="16" fill="white" transform="translate(0 0.5)"/>
</clipPath>
</defs>
</svg>
