<svg width="16" height="17" viewBox="0 0 16 17" fill="none" xmlns="http://www.w3.org/2000/svg">
<path d="M5.35161 13.0264C5.35161 13.0879 5.27742 13.137 5.18387 13.137C5.07742 13.1462 5.00323 13.0971 5.00323 13.0264C5.00323 12.965 5.07742 12.9158 5.17097 12.9158C5.26774 12.9066 5.35161 12.9557 5.35161 13.0264ZM4.34839 12.8882C4.32581 12.9496 4.39032 13.0203 4.4871 13.0387C4.57097 13.0694 4.66774 13.0387 4.6871 12.9773C4.70645 12.9158 4.64516 12.8451 4.54839 12.8175C4.46452 12.796 4.37097 12.8267 4.34839 12.8882ZM5.77419 12.8359C5.68064 12.8574 5.61613 12.9158 5.62581 12.9865C5.63548 13.0479 5.71935 13.0879 5.81613 13.0664C5.90968 13.0449 5.97419 12.9865 5.96452 12.925C5.95484 12.8666 5.86774 12.8267 5.77419 12.8359ZM7.89677 1.06201C3.42258 1.06201 0 4.29738 0 8.55897C0 11.9664 2.25161 14.8822 5.46774 15.9084C5.88064 15.9791 6.02581 15.7364 6.02581 15.5367C6.02581 15.3462 6.01613 14.2954 6.01613 13.6501C6.01613 13.6501 3.75806 14.111 3.28387 12.7345C3.28387 12.7345 2.91613 11.8404 2.3871 11.61C2.3871 11.61 1.64839 11.1276 2.43871 11.1368C2.43871 11.1368 3.24194 11.1983 3.68387 11.9295C4.39032 13.1155 5.57419 12.7745 6.03548 12.5717C6.10968 12.0801 6.31936 11.739 6.55161 11.5362C4.74839 11.3457 2.92903 11.0969 2.92903 8.1411C2.92903 7.29616 3.17419 6.87215 3.69032 6.33139C3.60645 6.13167 3.33226 5.30824 3.77419 4.24515C4.44839 4.04543 6 5.07473 6 5.07473C6.64516 4.90267 7.33871 4.81356 8.02581 4.81356C8.7129 4.81356 9.40645 4.90267 10.0516 5.07473C10.0516 5.07473 11.6032 4.04236 12.2774 4.24515C12.7194 5.31131 12.4452 6.13167 12.3613 6.33139C12.8774 6.87522 13.1935 7.29923 13.1935 8.1411C13.1935 11.1061 11.2935 11.3427 9.49032 11.5362C9.7871 11.779 10.0387 12.2398 10.0387 12.9619C10.0387 13.9973 10.029 15.2786 10.029 15.5305C10.029 15.7302 10.1774 15.973 10.5871 15.9023C13.8129 14.8822 16 11.9664 16 8.55897C16 4.29738 12.371 1.06201 7.89677 1.06201ZM3.13548 11.6591C3.09355 11.6899 3.10323 11.7605 3.15806 11.8189C3.20968 11.8681 3.28387 11.8896 3.32581 11.8496C3.36774 11.8189 3.35806 11.7482 3.30323 11.6899C3.25161 11.6407 3.17742 11.6192 3.13548 11.6591ZM2.7871 11.4103C2.76452 11.4502 2.79677 11.4994 2.86129 11.5301C2.9129 11.5608 2.97742 11.5516 3 11.5086C3.02258 11.4686 2.99032 11.4195 2.92581 11.3888C2.86129 11.3703 2.80968 11.3795 2.7871 11.4103ZM3.83226 12.5041C3.78065 12.544 3.8 12.6362 3.87419 12.6946C3.94839 12.7653 4.04194 12.7745 4.08387 12.7253C4.12581 12.6854 4.10645 12.5932 4.04194 12.5348C3.97097 12.4641 3.87419 12.4549 3.83226 12.5041ZM3.46452 12.0524C3.4129 12.0832 3.4129 12.163 3.46452 12.2337C3.51613 12.3044 3.60323 12.3351 3.64516 12.3044C3.69677 12.2644 3.69677 12.1845 3.64516 12.1139C3.6 12.0432 3.51613 12.0125 3.46452 12.0524Z"/>
</svg>