<svg width="16" height="16" viewBox="0 0 16 16" fill="none" xmlns="http://www.w3.org/2000/svg">
<g clip-path="url(#clip0_653_2608)">
<path d="M7.94587 0C3.5645 0 0 3.58878 0 7.99998C0 12.4112 3.5645 16 7.94587 16C12.3273 16 15.8918 12.4112 15.8918 7.99998C15.8918 3.58878 12.3273 0 7.94587 0ZM15.025 7.99998C15.025 8.6864 14.9278 9.35034 14.7471 9.97898H11.7972C11.8615 9.33084 11.8984 8.66724 11.8984 8.00369C11.8984 7.34013 11.8615 6.67658 11.7972 6.02843H14.7493C14.9286 6.65485 15.025 7.31627 15.025 7.99998ZM14.3853 5.04085H11.6745C11.4605 3.64799 11.0921 2.37189 10.5757 1.383C12.2629 2.06514 13.6308 3.38308 14.3853 5.04085ZM10.9143 8.00369C10.9143 8.68884 10.8774 9.34628 10.8131 9.97898H5.13287C5.06852 9.34628 5.03172 8.68888 5.03172 8.00369C5.03172 7.31849 5.06852 6.66114 5.13287 6.02843H10.8131C10.8774 6.66118 10.9143 7.31854 10.9143 8.00369ZM9.13936 0.974493C9.83591 1.75712 10.3936 3.21923 10.6874 5.04081H5.26159C5.55678 3.21055 6.11842 1.74307 6.81965 0.963235C7.18652 0.903936 7.56262 0.87265 7.94587 0.87265C8.35257 0.872693 8.75121 0.907906 9.13936 0.974493ZM5.38477 1.35555C4.86088 2.34824 4.48807 3.63499 4.27454 5.04085H1.50644C2.27117 3.36061 3.66601 2.02945 5.38477 1.35555ZM4.14885 9.97898H1.14468C0.963958 9.35038 0.866791 8.68644 0.866791 7.99998C0.866791 7.31627 0.963135 6.65481 1.14247 6.02843H4.15193C4.08753 6.67658 4.05077 7.34013 4.05077 8.00369C4.05077 8.66724 4.08753 9.33079 4.14885 9.97898ZM1.50986 10.9666H4.27454C4.48989 12.3687 4.86179 13.6524 5.38359 14.644C3.66791 13.9709 2.2752 12.6429 1.50986 10.9666ZM6.8122 15.0355C6.11447 14.2536 5.55574 12.7903 5.26159 10.9666H10.6874C10.3947 12.7816 9.8399 14.2396 9.14685 15.0242C8.75632 15.0917 8.35513 15.1273 7.94583 15.1273C7.56002 15.1273 7.18145 15.0956 6.8122 15.0355ZM10.5844 14.6134C11.0979 13.6261 11.4644 12.3544 11.6776 10.9666H14.3819C13.6279 12.618 12.2651 13.9313 10.5844 14.6134Z" fill="#69C3FC"/>
</g>
<defs>
<clipPath id="clip0_653_2608">
<rect width="16" height="16" fill="white"/>
</clipPath>
</defs>
</svg>
