<svg width="16" height="17" viewBox="0 0 16 17" fill="none" xmlns="http://www.w3.org/2000/svg">
<path d="M14.3554 5.15522C14.3655 5.29097 14.3655 5.42675 14.3655 5.56249C14.3655 9.70293 11.066 14.4737 5.03555 14.4737C3.17767 14.4737 1.45179 13.9597 0 13.0677C0.26397 13.0968 0.517752 13.1065 0.791878 13.1065C2.32485 13.1065 3.73605 12.612 4.86296 11.7683C3.42133 11.7392 2.2132 10.8375 1.79694 9.59629C2.00001 9.62536 2.20304 9.64476 2.41626 9.64476C2.71067 9.64476 3.00511 9.60596 3.2792 9.53812C1.77666 9.24719 0.649721 7.98664 0.649721 6.46427V6.4255C1.08625 6.65822 1.59391 6.80367 2.13195 6.82304C1.24869 6.26062 0.670034 5.30067 0.670034 4.21464C0.670034 3.63285 0.832441 3.09954 1.11672 2.6341C2.73095 4.53464 5.15736 5.77578 7.87816 5.91156C7.82741 5.67884 7.79694 5.43645 7.79694 5.19403C7.79694 3.46801 9.25888 2.06201 11.0761 2.06201C12.0203 2.06201 12.8731 2.44018 13.4721 3.05107C14.2132 2.91532 14.9238 2.6535 15.5533 2.29473C15.3096 3.022 14.7919 3.63288 14.1117 4.02072C14.7716 3.95288 15.4112 3.7783 16 3.53591C15.5534 4.15647 14.995 4.70915 14.3554 5.15522Z"/>
</svg>