<svg width="1440" height="149" viewBox="0 0 1440 149" fill="none" xmlns="http://www.w3.org/2000/svg">
<path fill-rule="evenodd" clip-rule="evenodd" d="M348.963 129.469H1093.53L1439.3 0.000412703L1439.65 0.936914L1093.8 130.437L1093.71 130.469H1093.62H348.873H348.784L348.699 130.437L0.348418 0.937326L0.69687 0L348.963 129.469ZM348.963 138.968H1093.53L1439.3 9.50007L1439.65 10.4366L1093.8 139.937L1093.71 139.968H1093.62H348.873H348.784L348.699 139.937L0.348389 10.437L0.696841 9.49965L348.963 138.968ZM1093.53 147.968H348.963L0.69687 18.4997L0.348418 19.4371L348.699 148.937L348.784 148.968H348.873H1093.62H1093.71L1093.8 148.937L1439.65 19.4366L1439.3 18.5001L1093.53 147.968Z" fill="url(#paint0_linear_32_342)"/>
<defs>
<linearGradient id="paint0_linear_32_342" x1="719.998" y1="0" x2="719.998" y2="148.968" gradientUnits="userSpaceOnUse">
<stop stop-color="#FFFDF5"/>
<stop offset="1" stop-color="#69C3FC"/>
</linearGradient>
</defs>
</svg>